<!--
  Copyright (c) 2026 Cisco Systems, Inc. and its affiliates
  SPDX-License-Identifier: Apache-2.0
-->
<svg xmlns="http://www.w3.org/2000/svg" width="980" height="244" viewBox="0 0 980.0 244.0">
<defs><marker id="arr" markerWidth="8" markerHeight="8" refX="7" refY="3" orient="auto"><path d="M0,0 L0,6 L8,3 z" fill="#58a6ff"/></marker></defs>
<rect width="980.0" height="244.0" fill="#0d1117" rx="8"/>
<text x="490.0" y="20.0" text-anchor="middle" dominant-baseline="middle" font-family="SFMono-Regular, Consolas, monospace" font-size="13.0" fill="#8b949e">Lab 2 — Lifecycle Control Pipeline</text>
<path d="M 220.0,138.0 C 246.0,138.0 246.0,176.0 272.0,176.0" stroke="#58a6ff" stroke-width="1.5" fill="none" opacity="0.7" marker-end="url(#arr)"/>
<path d="M 220.0,138.0 C 246.0,138.0 246.0,100.0 272.0,100.0" stroke="#58a6ff" stroke-width="1.5" fill="none" opacity="0.7" marker-end="url(#arr)"/>
<path d="M 460.0,100.0 C 486.0,100.0 486.0,138.0 512.0,138.0" stroke="#58a6ff" stroke-width="1.5" fill="none" opacity="0.7" marker-end="url(#arr)"/>
<path d="M 700.0,138.0 C 726.0,138.0 726.0,138.0 752.0,138.0" stroke="#58a6ff" stroke-width="1.5" fill="none" opacity="0.7" marker-end="url(#arr)"/>
<rect x="40.0" y="110.0" width="180.0" height="56.0" rx="28.0" fill="#0d1117" stroke="#d29922" stroke-width="1.5" stroke-dasharray="5 3"/>
<text x="130.0" y="138.0" text-anchor="middle" dominant-baseline="middle" font-family="SFMono-Regular, Consolas, monospace" font-size="11.0" font-weight="500" fill="#d29922">⊙ */*</text>
<rect x="280.0" y="148.0" width="180.0" height="56.0" rx="6.0" fill="#161b22" stroke="#30363d" stroke-width="1"/>
<clipPath id="clip-normalize"><rect x="280.0" y="148.0" width="180.0" height="56.0" rx="6.0"/></clipPath><rect x="280.0" y="148.0" width="4.0" height="56.0" fill="#3fb950" clip-path="url(#clip-normalize)"/>
<text x="292.0" y="166.0" dominant-baseline="middle" font-family="-apple-system, BlinkMacSystemFont, Segoe UI, sans-serif" font-size="12.0" font-weight="500" fill="#e6edf3">normalize</text>
<rect x="292.0" y="182.0" width="116.0" height="18.0" rx="3.0" fill="#3fb950" opacity="0.18"/>
<text x="350.0" y="191.0" text-anchor="middle" dominant-baseline="middle" font-family="SFMono-Regular, Consolas, monospace" font-size="10.0" fill="#3fb950">normalize_events</text>
<rect x="280.0" y="72.0" width="180.0" height="56.0" rx="6.0" fill="#161b22" stroke="#30363d" stroke-width="1"/>
<clipPath id="clip-eval-quality"><rect x="280.0" y="72.0" width="180.0" height="56.0" rx="6.0"/></clipPath><rect x="280.0" y="72.0" width="4.0" height="56.0" fill="#e3b341" clip-path="url(#clip-eval-quality)"/>
<text x="292.0" y="90.0" dominant-baseline="middle" font-family="-apple-system, BlinkMacSystemFont, Segoe UI, sans-serif" font-size="12.0" font-weight="500" fill="#e6edf3">eval-quality</text>
<rect x="292.0" y="106.0" width="64.0" height="18.0" rx="3.0" fill="#e3b341" opacity="0.18"/>
<text x="324.0" y="115.0" text-anchor="middle" dominant-baseline="middle" font-family="SFMono-Regular, Consolas, monospace" font-size="10.0" fill="#e3b341">eval_mce</text>
<rect x="520.0" y="110.0" width="180.0" height="56.0" rx="6.0" fill="#161b22" stroke="#30363d" stroke-width="1"/>
<clipPath id="clip-collect-metrics"><rect x="520.0" y="110.0" width="180.0" height="56.0" rx="6.0"/></clipPath><rect x="520.0" y="110.0" width="4.0" height="56.0" fill="#1f6feb" clip-path="url(#clip-collect-metrics)"/>
<text x="532.0" y="128.0" dominant-baseline="middle" font-family="-apple-system, BlinkMacSystemFont, Segoe UI, sans-serif" font-size="12.0" font-weight="500" fill="#e6edf3">collect-metrics</text>
<rect x="532.0" y="144.0" width="109.5" height="18.0" rx="3.0" fill="#1f6feb" opacity="0.18"/>
<text x="586.8" y="153.0" text-anchor="middle" dominant-baseline="middle" font-family="SFMono-Regular, Consolas, monospace" font-size="10.0" fill="#1f6feb">collect_metrics</text>
<rect x="760.0" y="110.0" width="180.0" height="56.0" rx="6.0" fill="#161b22" stroke="#30363d" stroke-width="1"/>
<clipPath id="clip-quality-by-governance-level"><rect x="760.0" y="110.0" width="180.0" height="56.0" rx="6.0"/></clipPath><rect x="760.0" y="110.0" width="4.0" height="56.0" fill="#db6d28" clip-path="url(#clip-quality-by-governance-level)"/>
<text x="772.0" y="128.0" dominant-baseline="middle" font-family="-apple-system, BlinkMacSystemFont, Segoe UI, sans-serif" font-size="12.0" font-weight="500" fill="#e6edf3">quality-by-governanc…</text>
<rect x="772.0" y="144.0" width="64.0" height="18.0" rx="3.0" fill="#db6d28" opacity="0.18"/>
<text x="804.0" y="153.0" text-anchor="middle" dominant-baseline="middle" font-family="SFMono-Regular, Consolas, monospace" font-size="10.0" fill="#db6d28">plotnine</text>
</svg>